<svg xmlns="http://www.w3.org/2000/svg" viewBox="0 0 680 680" width="680" height="680">
<rect width="680" height="680" fill="#0a1a0a"/>
<!-- PCB 기판 -->
<rect x="20" y="20" width="640" height="640" rx="6" fill="#0a2a0a"/>
<!-- 회로 트레이스 수평 -->
<line x1="20" y1="80" x2="660" y2="80" stroke="#1a5a1a" stroke-width="1.5"/>
<line x1="20" y1="600" x2="660" y2="600" stroke="#1a5a1a" stroke-width="1.5"/>
<line x1="20" y1="160" x2="200" y2="160" stroke="#2a7a2a" stroke-width="2"/>
<line x1="200" y1="160" x2="200" y2="240" stroke="#2a7a2a" stroke-width="2"/>
<line x1="200" y1="240" x2="340" y2="240" stroke="#2a7a2a" stroke-width="2"/>
<line x1="480" y1="160" x2="660" y2="160" stroke="#2a7a2a" stroke-width="2"/>
<line x1="480" y1="160" x2="480" y2="460" stroke="#2a7a2a" stroke-width="2"/>
<line x1="20" y1="460" x2="480" y2="460" stroke="#2a7a2a" stroke-width="2"/>
<!-- 골든 트레이스 -->
<line x1="200" y1="280" x2="480" y2="280" stroke="#8a6a00" stroke-width="3"/>
<line x1="200" y1="280" x2="200" y2="460" stroke="#8a6a00" stroke-width="3"/>
<line x1="200" y1="460" x2="480" y2="460" stroke="#8a6a00" stroke-width="3"/>
<line x1="480" y1="280" x2="480" y2="460" stroke="#8a6a00" stroke-width="3"/>
<!-- CPU 소켓 -->
<rect x="210" y="140" width="260" height="260" rx="8" fill="#1a1a00" stroke="#5a5a00" stroke-width="2"/>
<!-- CPU 칩 -->
<rect x="225" y="155" width="230" height="230" rx="6" fill="#1a1a1a" stroke="#555" stroke-width="3"/>
<rect x="237" y="167" width="206" height="206" rx="3" fill="#0d0d0d"/>
<!-- 코어들 -->
<rect x="248" y="178" width="82" height="82" rx="4" fill="#0d1b3e" stroke="#1565c0" stroke-width="1.5"/>
<text x="289" y="215" text-anchor="middle" font-family="sans-serif" font-size="11" fill="#42a5f5" font-weight="bold">Core 0</text>
<text x="289" y="232" text-anchor="middle" font-family="sans-serif" font-size="9" fill="#1976d2">3.8 GHz</text>
<rect x="340" y="178" width="82" height="82" rx="4" fill="#0d1b3e" stroke="#1565c0" stroke-width="1.5"/>
<text x="381" y="215" text-anchor="middle" font-family="sans-serif" font-size="11" fill="#42a5f5" font-weight="bold">Core 1</text>
<text x="381" y="232" text-anchor="middle" font-family="sans-serif" font-size="9" fill="#1976d2">3.8 GHz</text>
<rect x="248" y="270" width="82" height="82" rx="4" fill="#0d1b3e" stroke="#1565c0" stroke-width="1.5"/>
<text x="289" y="307" text-anchor="middle" font-family="sans-serif" font-size="11" fill="#42a5f5" font-weight="bold">Core 2</text>
<text x="289" y="324" text-anchor="middle" font-family="sans-serif" font-size="9" fill="#1976d2">4.2 GHz</text>
<rect x="340" y="270" width="82" height="82" rx="4" fill="#0d1b3e" stroke="#1565c0" stroke-width="1.5"/>
<text x="381" y="307" text-anchor="middle" font-family="sans-serif" font-size="11" fill="#42a5f5" font-weight="bold">Core 3</text>
<text x="381" y="324" text-anchor="middle" font-family="sans-serif" font-size="9" fill="#1976d2">4.2 GHz</text>
<!-- L3 캐시 -->
<rect x="248" y="362" width="174" height="30" rx="3" fill="#1a0d2e" stroke="#6a2a9a" stroke-width="1.5"/>
<text x="335" y="381" text-anchor="middle" font-family="sans-serif" font-size="10" fill="#aa5aff">L3 Cache — 12 MB</text>
<!-- CPU 핀 상단 -->
<rect x="232" y="144" width="4" height="11" rx="1" fill="#d4af37"/>
<rect x="244" y="144" width="4" height="11" rx="1" fill="#d4af37"/>
<rect x="256" y="144" width="4" height="11" rx="1" fill="#d4af37"/>
<rect x="268" y="144" width="4" height="11" rx="1" fill="#d4af37"/>
<rect x="280" y="144" width="4" height="11" rx="1" fill="#d4af37"/>
<rect x="292" y="144" width="4" height="11" rx="1" fill="#d4af37"/>
<rect x="304" y="144" width="4" height="11" rx="1" fill="#d4af37"/>
<rect x="316" y="144" width="4" height="11" rx="1" fill="#d4af37"/>
<rect x="328" y="144" width="4" height="11" rx="1" fill="#d4af37"/>
<rect x="340" y="144" width="4" height="11" rx="1" fill="#d4af37"/>
<rect x="352" y="144" width="4" height="11" rx="1" fill="#d4af37"/>
<rect x="364" y="144" width="4" height="11" rx="1" fill="#d4af37"/>
<rect x="376" y="144" width="4" height="11" rx="1" fill="#d4af37"/>
<rect x="388" y="144" width="4" height="11" rx="1" fill="#d4af37"/>
<rect x="400" y="144" width="4" height="11" rx="1" fill="#d4af37"/>
<rect x="412" y="144" width="4" height="11" rx="1" fill="#d4af37"/>
<rect x="424" y="144" width="4" height="11" rx="1" fill="#d4af37"/>
<!-- GPU -->
<rect x="32" y="155" width="160" height="130" rx="6" fill="#1a1a1a" stroke="#333" stroke-width="2"/>
<rect x="40" y="163" width="144" height="114" rx="3" fill="#090918"/>
<text x="112" y="182" text-anchor="middle" font-family="sans-serif" font-size="10" fill="#5a5aff" font-weight="bold">GPU</text>
<!-- CUDA 코어 그리드 -->
<rect x="44" y="188" width="12" height="12" rx="1" fill="#0d0d2e" stroke="#1a1a6e" stroke-width="0.5"/>
<rect x="60" y="188" width="12" height="12" rx="1" fill="#1a1a4e" stroke="#2a2a8e" stroke-width="0.5"/>
<rect x="76" y="188" width="12" height="12" rx="1" fill="#0d0d2e" stroke="#1a1a6e" stroke-width="0.5"/>
<rect x="92" y="188" width="12" height="12" rx="1" fill="#1a1a4e" stroke="#2a2a8e" stroke-width="0.5"/>
<rect x="108" y="188" width="12" height="12" rx="1" fill="#2a2a6e" stroke="#3a3aae" stroke-width="0.5"/>
<rect x="124" y="188" width="12" height="12" rx="1" fill="#1a1a4e" stroke="#2a2a8e" stroke-width="0.5"/>
<rect x="140" y="188" width="12" height="12" rx="1" fill="#0d0d2e" stroke="#1a1a6e" stroke-width="0.5"/>
<rect x="156" y="188" width="12" height="12" rx="1" fill="#2a2a6e" stroke="#3a3aae" stroke-width="0.5"/>
<rect x="44" y="204" width="12" height="12" rx="1" fill="#1a1a4e" stroke="#2a2a8e" stroke-width="0.5"/>
<rect x="60" y="204" width="12" height="12" rx="1" fill="#2a2a6e" stroke="#3a3aae" stroke-width="0.5"/>
<rect x="76" y="204" width="12" height="12" rx="1" fill="#1a1a4e" stroke="#2a2a8e" stroke-width="0.5"/>
<rect x="92" y="204" width="12" height="12" rx="1" fill="#0d0d2e" stroke="#1a1a6e" stroke-width="0.5"/>
<rect x="108" y="204" width="12" height="12" rx="1" fill="#1a1a4e" stroke="#2a2a8e" stroke-width="0.5"/>
<rect x="124" y="204" width="12" height="12" rx="1" fill="#2a2a6e" stroke="#3a3aae" stroke-width="0.5"/>
<rect x="140" y="204" width="12" height="12" rx="1" fill="#1a1a4e" stroke="#2a2a8e" stroke-width="0.5"/>
<rect x="156" y="204" width="12" height="12" rx="1" fill="#0d0d2e" stroke="#1a1a6e" stroke-width="0.5"/>
<text x="112" y="240" text-anchor="middle" font-family="sans-serif" font-size="9" fill="#4a4aaa">VRAM 8 GB GDDR6</text>
<text x="112" y="256" text-anchor="middle" font-family="sans-serif" font-size="9" fill="#3a3a8a">4096 CUDA Cores</text>
<text x="112" y="272" text-anchor="middle" font-family="sans-serif" font-size="9" fill="#3a3a8a">TFLOPs: 12.7</text>
<!-- RAM 슬롯들 -->
<rect x="32" y="490" width="616" height="55" rx="4" fill="#111100" stroke="#4a4a00" stroke-width="1.5"/>
<rect x="42" y="498" width="280" height="38" rx="3" fill="#080818" stroke="#1a1a5a" stroke-width="1.5"/>
<text x="182" y="513" text-anchor="middle" font-family="sans-serif" font-size="10" fill="#5a5aff">DDR5-4800</text>
<text x="182" y="528" text-anchor="middle" font-family="sans-serif" font-size="10" fill="#4a4aaa">32 GB</text>
<rect x="338" y="498" width="280" height="38" rx="3" fill="#080818" stroke="#1a1a5a" stroke-width="1.5"/>
<text x="478" y="513" text-anchor="middle" font-family="sans-serif" font-size="10" fill="#5a5aff">DDR5-4800</text>
<text x="478" y="528" text-anchor="middle" font-family="sans-serif" font-size="10" fill="#4a4aaa">32 GB</text>
<!-- 콘덴서들 -->
<rect x="510" y="165" width="18" height="32" rx="3" fill="#3a3a00" stroke="#8a8a00" stroke-width="1"/>
<rect x="513" y="160" width="4" height="7" rx="1" fill="#8a8a00"/>
<rect x="521" y="160" width="4" height="7" rx="1" fill="#8a8a00"/>
<rect x="540" y="170" width="18" height="32" rx="3" fill="#3a3a00" stroke="#8a8a00" stroke-width="1"/>
<rect x="543" y="165" width="4" height="7" rx="1" fill="#8a8a00"/>
<rect x="551" y="165" width="4" height="7" rx="1" fill="#8a8a00"/>
<rect x="570" y="160" width="18" height="32" rx="3" fill="#3a0000" stroke="#8a0000" stroke-width="1"/>
<rect x="573" y="155" width="4" height="7" rx="1" fill="#8a0000"/>
<rect x="581" y="155" width="4" height="7" rx="1" fill="#8a0000"/>
<rect x="600" y="165" width="18" height="32" rx="3" fill="#3a3a00" stroke="#8a8a00" stroke-width="1"/>
<rect x="603" y="160" width="4" height="7" rx="1" fill="#8a8a00"/>
<rect x="611" y="160" width="4" height="7" rx="1" fill="#8a8a00"/>
<!-- 타이틀 -->
<text x="340" y="635" text-anchor="middle" font-family="sans-serif" font-size="14" fill="#2a7a2a">Motherboard — CPU · GPU · RAM</text>
</svg>
