<svg xmlns="http://www.w3.org/2000/svg" viewBox="0 0 680 680" width="680" height="680">
<rect width="680" height="680" fill="#0a0a1a"/>
<circle cx="80" cy="50" r="1" fill="#fff" opacity="0.4"/>
<circle cx="150" cy="80" r="1.5" fill="#fff" opacity="0.3"/>
<circle cx="580" cy="60" r="1" fill="#fff" opacity="0.5"/>
<circle cx="620" cy="120" r="1" fill="#fff" opacity="0.3"/>
<circle cx="500" cy="45" r="1.2" fill="#fff" opacity="0.4"/>
<circle cx="60" cy="200" r="1" fill="#fff" opacity="0.3"/>
<circle cx="630" cy="550" r="1.5" fill="#fff" opacity="0.4"/>
<circle cx="320" cy="30" r="1" fill="#fff" opacity="0.3"/>
<circle cx="200" cy="620" r="1.2" fill="#fff" opacity="0.4"/>
<!-- 연결선 input→hidden1 -->
<line x1="110" y1="200" x2="270" y2="170" stroke="#1a3a6e" stroke-width="0.8" opacity="0.5"/>
<line x1="110" y1="200" x2="270" y2="270" stroke="#1a3a6e" stroke-width="0.8" opacity="0.5"/>
<line x1="110" y1="200" x2="270" y2="370" stroke="#1a3a6e" stroke-width="0.6" opacity="0.3"/>
<line x1="110" y1="300" x2="270" y2="170" stroke="#1565c0" stroke-width="1.5" opacity="0.7"/>
<line x1="110" y1="300" x2="270" y2="270" stroke="#1565c0" stroke-width="2" opacity="0.9"/>
<line x1="110" y1="300" x2="270" y2="370" stroke="#1565c0" stroke-width="1.5" opacity="0.8"/>
<line x1="110" y1="300" x2="270" y2="470" stroke="#1a3a6e" stroke-width="0.6" opacity="0.3"/>
<line x1="110" y1="400" x2="270" y2="270" stroke="#1a3a6e" stroke-width="0.8" opacity="0.5"/>
<line x1="110" y1="400" x2="270" y2="370" stroke="#1565c0" stroke-width="1.5" opacity="0.8"/>
<line x1="110" y1="400" x2="270" y2="470" stroke="#1565c0" stroke-width="1.2" opacity="0.7"/>
<line x1="110" y1="500" x2="270" y2="370" stroke="#1a3a6e" stroke-width="0.6" opacity="0.4"/>
<line x1="110" y1="500" x2="270" y2="470" stroke="#1565c0" stroke-width="1.5" opacity="0.9"/>
<!-- hidden1→hidden2 -->
<line x1="270" y1="170" x2="420" y2="220" stroke="#1976d2" stroke-width="1" opacity="0.5"/>
<line x1="270" y1="170" x2="420" y2="370" stroke="#0d47a1" stroke-width="0.6" opacity="0.3"/>
<line x1="270" y1="270" x2="420" y2="220" stroke="#42a5f5" stroke-width="2.5" opacity="0.9"/>
<line x1="270" y1="270" x2="420" y2="370" stroke="#1976d2" stroke-width="2" opacity="0.8"/>
<line x1="270" y1="270" x2="420" y2="490" stroke="#0d47a1" stroke-width="0.6" opacity="0.3"/>
<line x1="270" y1="370" x2="420" y2="220" stroke="#1976d2" stroke-width="1.5" opacity="0.7"/>
<line x1="270" y1="370" x2="420" y2="370" stroke="#42a5f5" stroke-width="2.5" opacity="1"/>
<line x1="270" y1="370" x2="420" y2="490" stroke="#1976d2" stroke-width="1.5" opacity="0.7"/>
<line x1="270" y1="470" x2="420" y2="370" stroke="#1976d2" stroke-width="1.5" opacity="0.6"/>
<line x1="270" y1="470" x2="420" y2="490" stroke="#42a5f5" stroke-width="2" opacity="0.9"/>
<!-- hidden2→output -->
<line x1="420" y1="220" x2="570" y2="280" stroke="#82b1ff" stroke-width="2.5" opacity="1"/>
<line x1="420" y1="220" x2="570" y2="430" stroke="#1565c0" stroke-width="0.6" opacity="0.3"/>
<line x1="420" y1="370" x2="570" y2="280" stroke="#82b1ff" stroke-width="3" opacity="1"/>
<line x1="420" y1="370" x2="570" y2="430" stroke="#42a5f5" stroke-width="2" opacity="0.8"/>
<line x1="420" y1="490" x2="570" y2="280" stroke="#1565c0" stroke-width="0.6" opacity="0.2"/>
<line x1="420" y1="490" x2="570" y2="430" stroke="#1976d2" stroke-width="1.5" opacity="0.7"/>
<!-- Input 노드 -->
<circle cx="110" cy="200" r="22" fill="#0d1b3e" stroke="#1565c0" stroke-width="2"/>
<text x="110" y="205" text-anchor="middle" font-family="sans-serif" font-size="12" fill="#82b1ff">x₁</text>
<circle cx="110" cy="300" r="22" fill="#1a2a5e" stroke="#42a5f5" stroke-width="3"/>
<text x="110" y="305" text-anchor="middle" font-family="sans-serif" font-size="12" fill="#e3f2fd">x₂</text>
<circle cx="110" cy="400" r="22" fill="#0d1b3e" stroke="#1565c0" stroke-width="2"/>
<text x="110" y="405" text-anchor="middle" font-family="sans-serif" font-size="12" fill="#82b1ff">x₃</text>
<circle cx="110" cy="500" r="22" fill="#0d1b3e" stroke="#1565c0" stroke-width="2"/>
<text x="110" y="505" text-anchor="middle" font-family="sans-serif" font-size="12" fill="#82b1ff">x₄</text>
<!-- Hidden1 노드 -->
<circle cx="270" cy="170" r="24" fill="#0a2a5e" stroke="#1976d2" stroke-width="2"/>
<circle cx="270" cy="170" r="14" fill="#0d47a1" opacity="0.7"/>
<circle cx="270" cy="270" r="26" fill="#1a3a8c" stroke="#42a5f5" stroke-width="3"/>
<circle cx="270" cy="270" r="15" fill="#1565c0" opacity="0.9"/>
<circle cx="270" cy="370" r="26" fill="#1a3a8c" stroke="#82b1ff" stroke-width="3"/>
<circle cx="270" cy="370" r="15" fill="#1976d2" opacity="1"/>
<circle cx="270" cy="470" r="24" fill="#0a2a5e" stroke="#1976d2" stroke-width="2"/>
<circle cx="270" cy="470" r="14" fill="#0d47a1" opacity="0.6"/>
<!-- Hidden2 노드 -->
<circle cx="420" cy="220" r="24" fill="#0e3a7e" stroke="#42a5f5" stroke-width="2.5"/>
<circle cx="420" cy="220" r="14" fill="#1565c0" opacity="0.8"/>
<circle cx="420" cy="370" r="28" fill="#1a4a9e" stroke="#82b1ff" stroke-width="3.5"/>
<circle cx="420" cy="370" r="16" fill="#1976d2" opacity="1"/>
<circle cx="420" cy="490" r="24" fill="#0e3a7e" stroke="#42a5f5" stroke-width="2"/>
<circle cx="420" cy="490" r="14" fill="#1565c0" opacity="0.7"/>
<!-- Output 노드 -->
<circle cx="570" cy="280" r="28" fill="#0d2a5e" stroke="#82b1ff" stroke-width="3.5"/>
<circle cx="570" cy="280" r="16" fill="#42a5f5" opacity="0.95"/>
<text x="570" y="284" text-anchor="middle" font-family="sans-serif" font-size="11" fill="#fff">0.87</text>
<circle cx="570" cy="430" r="24" fill="#0d1b3e" stroke="#1565c0" stroke-width="2"/>
<circle cx="570" cy="430" r="14" fill="#1565c0" opacity="0.4"/>
<text x="570" y="434" text-anchor="middle" font-family="sans-serif" font-size="11" fill="#82b1ff">0.13</text>
<!-- 레이어 레이블 -->
<text x="110" y="570" text-anchor="middle" font-family="sans-serif" font-size="13" fill="#546e8a">Input</text>
<text x="270" y="570" text-anchor="middle" font-family="sans-serif" font-size="13" fill="#546e8a">Hidden 1</text>
<text x="420" y="570" text-anchor="middle" font-family="sans-serif" font-size="13" fill="#546e8a">Hidden 2</text>
<text x="570" y="510" text-anchor="middle" font-family="sans-serif" font-size="13" fill="#82b1ff">Output</text>
<!-- 타이틀 -->
<text x="340" y="630" text-anchor="middle" font-family="sans-serif" font-size="15" fill="#546e8a">Deep Neural Network — Forward Propagation</text>
</svg>
